<svg xmlns="http://www.w3.org/2000/svg" viewBox="0 0 100 100" width="100" height="100">
  <defs>
    <linearGradient id="g" x1="0%" y1="0%" x2="100%" y2="100%">
      <stop offset="0%" stop-color="#b8860b"/>
      <stop offset="40%" stop-color="#f0d68a"/>
      <stop offset="60%" stop-color="#e8c25e"/>
      <stop offset="100%" stop-color="#b8860b"/>
    </linearGradient>
  </defs>
  <rect width="100" height="100" rx="22" fill="#1a1a2e"/>
  <!-- Shield shape -->
  <path d="M50 8 L74 18 Q78 20 78 24 L78 54 Q78 70 50 84 Q22 70 22 54 L22 24 Q22 20 26 18 Z" fill="none" stroke="url(#g)" stroke-width="2.5"/>
  <!-- Cup inside shield -->
  <path d="M42 30 L40 30 Q38 30 38 32 L38 44 Q38 52 43 54 L57 54 Q62 52 62 44 L62 32 Q62 30 60 30 Z" fill="url(#g)" opacity="0.9"/>
  <path d="M38 33 Q34 33 34 38 Q34 42 37 42" fill="none" stroke="url(#g)" stroke-width="2" stroke-linecap="round"/>
  <path d="M62 33 Q66 33 66 38 Q66 42 63 42" fill="none" stroke="url(#g)" stroke-width="2" stroke-linecap="round"/>
  <rect x="37" y="54" width="26" height="4" rx="2" fill="url(#g)"/>
  <rect x="41" y="58" width="18" height="3" rx="1.5" fill="#b8860b"/>
  <!-- Star -->
  <polygon points="50,36 52,41 57,41 53,44 54.5,50 50,46 45.5,50 47,44 43,41 48,41" fill="#fff" opacity="0.5"/>
  <!-- Small accent diamond at bottom -->
  <polygon points="50,65 53,68 50,71 47,68" fill="url(#g)" opacity="0.5"/>
</svg>